<svg width="614" height="543" viewBox="0 0 614 543" fill="none" xmlns="http://www.w3.org/2000/svg">
<path d="M603.8 435.7C585.5 484.8 570 496.2 551.7 496.2C533.4 496.1 372.7 499.9 294.7 486.7C216.7 473.5 117.1 474.9 69.2 481.1C21.3 487.2 0 496.1 0 484.4C0 472.7 11.8 319.5 26.4 305.9C26.4 305.9 19.7 284.7 66.7 275.3C80.7 272.5 98.9 269.9 119.2 267.9C117.5 257.4 116.6 246.6 116.6 235.6C116.6 125.1 206.2 35.4 316.8 35.4C427.3 35.4 517 125 517 235.6C517 254.7 514.3 273.1 509.3 290.6C531.1 291.2 550.1 291 557.9 288.5C573.9 283.3 605.8 285.7 607.2 293.9C608.5 302.1 622.1 386.6 603.8 435.7Z" fill="#EC2027"/>
<path d="M393.102 161C393.102 161 484.902 226.4 499.002 229.3C513.102 232.2 522.002 256.6 516.902 264.6C511.802 272.6 484.002 268.4 470.402 254.3C456.802 240.2 427.602 244.9 426.202 256.6C424.802 268.3 434.202 285.6 434.202 285.6H413.502L373.102 165.4L393.102 161Z" fill="black"/>
<path d="M206.801 256.6C206.801 256.6 199.801 209.1 162.201 190.8C122.701 172.5 85.1008 144.4 82.8008 125.8C80.5008 107.2 99.2008 104.9 124.201 120.4C149.201 135.9 198.401 151 241.701 141.1C232.601 184.7 206.801 256.6 206.801 256.6Z" fill="black"/>
<path d="M386.001 156.9C386.001 156.9 395.201 233.3 408.601 251C422.001 268.7 418.601 285.6 418.601 285.6C418.601 285.6 336.801 276.7 282.001 266.2C243.501 263.9 201.301 262.1 201.301 262.1L219.001 146.5C219.001 146.5 280.801 204.7 341.001 179.3C370.101 168.5 386.001 156.9 386.001 156.9Z" fill="url(#paint0_linear_225_348)"/>
<path d="M234.4 76.5C234.4 30.5 263.4 -2.60002 317.1 1.89998C364 5.79998 410.9 30.3 404.8 76.5C404.8 76.5 391.9 138.9 386.8 143.4C356.2 153.8 297.9 167.9 264.5 148.1C231.1 128.3 229.4 114.4 229.4 114.4" fill="white"/>
<path d="M282.45 71.7439C283.736 64.7362 282.005 58.546 278.583 57.9176C275.16 57.2892 271.343 62.4607 270.056 69.4683C268.77 76.4759 270.501 82.6661 273.923 83.2945C277.346 83.9229 281.163 78.7515 282.45 71.7439Z" fill="black"/>
<path d="M369.731 87.8678C371.018 80.8601 369.286 74.6699 365.864 74.0416C362.442 73.4132 358.624 78.5846 357.338 85.5922C356.051 92.5998 357.782 98.79 361.204 99.4184C364.627 100.047 368.444 94.8754 369.731 87.8678Z" fill="black"/>
<path d="M278.801 92.5L315.901 81.2L348.101 107.3L335.401 108C335.401 108 323.601 138.9 304.701 141C296.201 126 286.901 107.3 286.701 97L278.801 92.5Z" fill="#F3C844"/>
<path d="M295.001 98.6L311.601 110.5L328.801 107L328.301 110.5L309.401 125.8L291.301 101.3L295.001 98.6Z" fill="#763F1C"/>
<path d="M336.1 94.8C336.1 94.8 346.8 55 375.3 43C389.6 36.7 393.2 34.5 393.2 34.5C393.2 34.5 346.1 -21.5 270.6 9.29999C283.4 25.7 296.2 31.4 297.9 86.8C316.3 84.2 316.3 84.2 316.3 84.2L334.8 98.6L336.1 94.8Z" fill="black"/>
<path d="M226.2 106.2C226.2 106.2 270.6 183.2 393.7 137.6C398.3 137 399.4 137.6 399.4 137.6C399.4 137.6 401.5 139.6 405.6 134.4C409.7 129.3 417.7 130 417.4 135.4C417.1 140.8 430.2 144.3 420 159.6C409.8 174.9 400.2 159.6 400.2 159.6C400.2 159.6 363.2 190.9 306.4 192.9C249.6 194.9 215.4 145.2 215.4 145.2C215.4 145.2 216.9 112.1 226.2 106.2Z" fill="#F0B11D"/>
<path d="M226.2 106.2C226.2 106.2 270.6 183.2 393.7 137.6C398.3 137 399.4 137.6 399.4 137.6C399.4 137.6 401.5 139.6 405.6 134.4C409.7 129.3 417.7 130 417.4 135.4C417.1 140.8 430.2 144.3 420 159.6C409.8 174.9 400.2 159.6 400.2 159.6C400.2 159.6 363.2 190.9 306.4 192.9C249.6 194.9 215.4 145.2 215.4 145.2C215.4 145.2 216.9 112.1 226.2 106.2Z" stroke="#F9A01B" stroke-miterlimit="10"/>
<path d="M418.901 157.5C418.901 157.5 419.201 158.3 420.001 159.1C422.601 161.6 430.501 164.4 453.101 146.7C483.201 123.1 503.701 118.7 513.701 115.8C523.701 113 546.301 107.3 546.301 107.3C546.301 107.3 516.201 75.2 509.801 73.1C503.401 71 493.101 76.7 481.001 89.8C468.901 102.9 455.801 136.3 418.801 144C381.801 151.7 419.101 158.1 419.101 158.1L418.901 157.5Z" fill="url(#paint1_linear_225_348)"/>
<path d="M436.601 153.7C436.601 153.7 473.901 169.6 502.101 167.8C530.401 166 547.601 162.1 547.601 162.1V204.4C547.601 204.4 528.801 215.2 491.101 197.5C453.401 179.8 426.101 157.4 422.501 157.4C418.901 157.4 436.601 153.7 436.601 153.7Z" fill="url(#paint2_linear_225_348)"/>
<path d="M62.2992 528.7L59.6992 503.9L63.9992 503.3L66.5992 528.1L62.2992 528.7Z" fill="#ED1C24"/>
<path d="M272.901 519.9L278.301 522.4C277.001 525 275.201 526.9 273.001 527.9C270.801 528.9 268.101 529.2 265.101 528.7C261.301 528.1 258.301 526.4 256.301 523.7C254.201 521 253.501 517.6 254.101 513.6C254.801 509.4 256.501 506.3 259.401 504.3C262.201 502.3 265.701 501.7 269.701 502.3C273.201 502.9 275.901 504.2 277.801 506.4C278.901 507.7 279.701 509.4 280.001 511.6L274.101 511.9C274.001 510.5 273.401 509.4 272.501 508.4C271.501 507.5 270.301 506.9 268.801 506.6C266.701 506.3 264.801 506.7 263.301 507.8C261.801 508.9 260.801 511 260.301 514.1C259.801 517.3 260.101 519.7 261.201 521.3C262.301 522.9 263.901 523.8 266.001 524.2C267.501 524.4 268.901 524.2 270.201 523.5C271.101 523 272.101 521.7 272.901 519.9Z" fill="#ED1C24"/>
<path d="M125.201 512.7L130.401 514.7C129.301 517.3 127.801 519.1 125.701 520.2C123.701 521.3 121.201 521.7 118.201 521.4C114.601 521 111.701 519.6 109.601 517.2C107.501 514.8 106.601 511.6 107.001 507.8C107.401 503.7 108.901 500.7 111.501 498.7C114.101 496.7 117.301 495.9 121.101 496.2C124.401 496.5 127.101 497.7 129.001 499.6C130.101 500.8 130.901 502.3 131.401 504.4L125.801 505C125.601 503.7 125.001 502.6 124.101 501.8C123.101 501 121.901 500.5 120.501 500.3C118.501 500.1 116.801 500.6 115.401 501.8C114.001 503 113.201 505 112.901 507.9C112.601 511 113.001 513.2 114.101 514.7C115.201 516.2 116.801 516.9 118.801 517.1C120.301 517.2 121.601 517 122.701 516.2C123.701 515.6 124.601 514.4 125.201 512.7Z" fill="#ED1C24"/>
<path d="M62.619 494.125L58.9453 494.566L59.6486 500.424L63.3223 499.983L62.619 494.125Z" fill="#ED1C24"/>
<path d="M387 530.7L393.8 531.8C392.9 534.3 391.5 536.2 389.6 537.5C387.7 538.8 385.3 539.5 382.5 539.5C378 539.5 374.7 538 372.5 535.1C370.8 532.7 369.9 529.8 369.9 526.2C369.9 521.9 371 518.5 373.3 516.1C375.5 513.7 378.4 512.5 381.8 512.5C385.7 512.5 388.7 513.8 390.9 516.3C393.1 518.8 394.2 522.7 394.1 528H376.9C376.9 530 377.5 531.6 378.6 532.7C379.7 533.8 381 534.4 382.6 534.4C383.7 534.4 384.6 534.1 385.3 533.5C386 532.9 386.7 532 387 530.7ZM387.4 523.7C387.4 521.7 386.8 520.2 385.9 519.2C384.9 518.2 383.7 517.6 382.3 517.6C380.8 517.6 379.6 518.1 378.6 519.2C377.6 520.3 377.1 521.8 377.2 523.6H387.4V523.7Z" fill="#ED1C24"/>
<path d="M184.8 511.9L191.6 513.3C190.6 515.8 189.2 517.6 187.2 518.9C185.3 520.1 182.9 520.7 180 520.6C175.5 520.4 172.2 518.8 170.2 515.8C168.6 513.4 167.9 510.4 168 506.8C168.2 502.5 169.4 499.2 171.8 496.8C174.2 494.4 177 493.4 180.5 493.5C184.4 493.7 187.3 495 189.5 497.7C191.6 500.3 192.5 504.3 192.2 509.5L175 508.8C175 510.8 175.5 512.4 176.5 513.6C177.5 514.8 178.8 515.4 180.4 515.5C181.5 515.5 182.4 515.3 183.1 514.7C183.8 514.1 184.4 513.2 184.8 511.9ZM185.5 505C185.5 503 185.1 501.5 184.1 500.4C183.2 499.3 182 498.8 180.6 498.7C179.1 498.6 177.8 499.1 176.8 500.2C175.8 501.3 175.2 502.7 175.2 504.6L185.5 505Z" fill="#ED1C24"/>
<path d="M324.199 532.5L316.699 531.7L319.499 506.5L326.499 507.3L326.099 510.9C327.499 509.3 328.699 508.3 329.699 507.9C330.699 507.5 331.799 507.3 332.999 507.5C334.699 507.7 336.299 508.3 337.799 509.3L334.799 514.9C333.599 514 332.499 513.5 331.399 513.4C330.299 513.3 329.399 513.4 328.599 513.9C327.799 514.3 327.099 515.2 326.599 516.5C325.999 517.8 325.499 520.6 324.999 524.9L324.199 532.5Z" fill="#ED1C24"/>
<path d="M436.599 524.7L430.499 523.6C431.199 521.2 432.399 519.4 433.999 518.3C435.599 517.2 438.199 516.6 441.499 516.6C444.499 516.6 446.699 516.9 448.199 517.6C449.699 518.3 450.699 519.2 451.299 520.2C451.899 521.3 452.199 523.2 452.199 526.1L452.099 533.7C452.099 535.9 452.199 537.5 452.399 538.5C452.599 539.5 452.999 540.6 453.599 541.8H446.899C446.699 541.4 446.499 540.7 446.299 539.9C446.199 539.5 446.099 539.3 446.099 539.1C444.999 540.2 443.699 541 442.399 541.5C441.099 542 439.699 542.3 438.199 542.3C435.599 542.3 433.499 541.6 431.999 540.2C430.499 538.8 429.699 537.1 429.699 535C429.699 533.6 429.999 532.4 430.699 531.3C431.399 530.2 432.299 529.4 433.599 528.8C434.799 528.2 436.599 527.7 438.999 527.3C442.099 526.7 444.299 526.2 445.499 525.7V525C445.499 523.7 445.199 522.8 444.499 522.3C443.899 521.8 442.699 521.5 440.899 521.5C439.699 521.5 438.799 521.7 438.099 522.2C437.599 522.8 436.999 523.6 436.599 524.7ZM445.599 530C444.699 530.3 443.399 530.6 441.499 531C439.599 531.4 438.399 531.8 437.799 532.1C436.899 532.7 436.499 533.5 436.499 534.4C436.499 535.3 436.899 536.1 437.599 536.8C438.299 537.5 439.199 537.8 440.299 537.8C441.499 537.8 442.699 537.4 443.799 536.6C444.599 536 445.099 535.3 445.399 534.4C445.599 533.8 445.699 532.8 445.699 531.2V530H445.599Z" fill="#ED1C24"/>
<path d="M490.9 515L497.1 514.6L497.3 518C499.3 515.2 501.9 513.7 504.9 513.5C506.5 513.4 508 513.6 509.2 514.2C510.4 514.8 511.5 515.7 512.3 516.9C513.3 515.5 514.5 514.4 515.7 513.7C516.9 513 518.3 512.5 519.8 512.4C521.7 512.3 523.3 512.5 524.6 513.2C525.9 513.8 527 514.9 527.7 516.2C528.2 517.2 528.6 518.9 528.8 521.3L529.9 537.1L523.2 537.6L522.2 523.5C522 521.1 521.7 519.5 521.2 518.8C520.5 517.9 519.5 517.5 518.2 517.6C517.3 517.7 516.4 518 515.6 518.6C514.8 519.2 514.3 520.1 514 521.2C513.7 522.3 513.7 524 513.8 526.3L514.7 538.1L508 538.6L507 525.1C506.8 522.7 506.6 521.2 506.3 520.5C506 519.8 505.6 519.3 505.1 519C504.6 518.7 503.9 518.6 503 518.6C502 518.7 501.1 519 500.3 519.6C499.5 520.2 499 521 498.7 522.1C498.4 523.1 498.4 524.9 498.5 527.2L499.4 539.2L492.7 539.7L490.9 515Z" fill="#ED1C24"/>
<path d="M298.901 424.8C296.001 432.8 292.101 439.7 287.201 445.6C282.301 451.5 276.501 456.2 269.801 459.6C263.101 463 255.501 465 247.001 465.6C238.501 466.2 229.301 465.1 219.201 462.4C209.501 459.8 201.401 456.4 195.101 452.1C188.801 447.9 184.001 442.9 180.901 437.2C177.801 431.5 176.201 425.2 176.301 418.1C176.401 411 177.901 403.4 180.901 395.1C183.801 387.1 187.701 380.2 192.701 374.2C197.701 368.2 203.401 363.6 210.101 360.2C216.801 356.8 224.401 354.8 232.801 354.3C241.201 353.8 250.501 354.8 260.501 357.5C270.301 360.1 278.401 363.6 284.701 367.8C291.101 372 295.801 376.9 298.901 382.6C302.001 388.3 303.501 394.6 303.401 401.7C303.501 408.8 301.901 416.5 298.901 424.8ZM266.701 417.3C268.401 412.7 269.501 408.3 270.101 404.2C270.701 400.1 270.501 396.3 269.501 392.9C268.501 389.5 266.601 386.5 263.801 384C261.001 381.5 257.001 379.5 251.901 378.1C247.301 376.9 243.101 376.5 239.101 377C235.101 377.5 231.601 378.9 228.301 381C225.101 383.2 222.201 386 219.701 389.6C217.201 393.2 215.001 397.5 213.201 402.4C211.501 407 210.401 411.4 209.901 415.5C209.401 419.6 209.601 423.4 210.501 426.8C211.501 430.2 213.401 433.2 216.201 435.6C219.001 438 223.001 440 228.101 441.4C232.801 442.7 237.101 443 241.001 442.5C245.001 442 248.501 440.7 251.701 438.5C254.901 436.4 257.801 433.5 260.201 429.9C262.801 426.6 264.901 422.3 266.701 417.3Z" fill="white"/>
<path d="M335.5 461C335.3 461.8 334.9 462.4 334.3 462.9C333.7 463.4 332.7 463.7 331.4 463.8C330.1 463.9 328.4 463.9 326.4 463.7C324.4 463.5 321.8 463.1 318.7 462.4C315.6 461.8 313.1 461.1 311.2 460.5C309.3 459.9 307.7 459.3 306.6 458.6C305.5 458 304.8 457.3 304.4 456.6C304 455.9 303.9 455.2 304.1 454.4L340.2 299.8C340.4 299 340.8 298.4 341.4 297.8C342 297.2 343 296.9 344.3 296.7C345.6 296.5 347.3 296.5 349.3 296.7C351.3 296.9 353.9 297.3 357 297.9C360.1 298.5 362.6 299.2 364.5 299.8C366.4 300.4 368 301.1 369.1 301.8C370.2 302.5 370.9 303.2 371.3 303.9C371.7 304.6 371.7 305.4 371.6 306.2L335.5 461Z" fill="white"/>
<path d="M454.7 467.3C454.5 468.4 453.9 469.1 453 469.6C452.1 470.1 450.7 470.3 448.9 470.2C447.1 470.1 444.5 469.8 441.1 469.2C437.4 468.5 434.8 467.9 433.2 467.3C431.6 466.7 430.5 466.1 429.9 465.3C429.3 464.6 429.2 463.7 429.4 462.6L431.1 454.4C425.7 458.1 419.9 460.7 413.6 462.2C407.3 463.7 400.7 463.8 393.7 462.5C387.9 461.4 382.8 459.8 378.2 457.5C373.6 455.2 369.9 452.3 366.9 448.9C363.9 445.5 361.9 441.5 360.8 437C359.7 432.5 359.7 427.5 360.8 422C362 416 364.3 411.1 367.7 407.1C371.1 403.1 375.5 400.2 381.1 398.2C386.7 396.2 393.2 395.2 400.8 395.2C408.4 395.2 417.1 396 426.7 397.8L437.3 399.7L438.6 393.5C439.3 390.3 439.5 387.4 439.3 384.9C439.1 382.4 438.4 380.1 437.1 378.2C435.8 376.3 434 374.7 431.5 373.5C429 372.3 425.8 371.3 421.9 370.6C416.8 369.7 412.1 369.4 407.8 369.7C403.6 370 399.7 370.6 396.4 371.3C393.1 372 390.2 372.8 387.9 373.5C385.6 374.2 383.8 374.4 382.5 374.2C381.6 374 380.9 373.6 380.3 373C379.7 372.4 379.3 371.5 379.1 370.4C378.9 369.3 378.8 368 378.8 366.5C378.9 365 379.1 363.4 379.4 361.6C379.9 359.2 380.5 357.4 381.2 356.1C381.9 354.8 382.9 353.7 384.3 352.8C385.7 351.9 387.9 351 391 350.2C394.1 349.4 397.7 348.7 401.8 348.3C405.9 347.8 410.2 347.7 414.9 347.8C419.6 347.9 424.3 348.4 429.1 349.3C437.6 350.9 444.8 353 450.5 355.7C456.2 358.4 460.7 361.7 464 365.7C467.3 369.7 469.2 374.4 470 379.8C470.8 385.2 470.4 391.5 468.9 398.6L454.7 467.3ZM433.5 417.9L421.8 415.8C416.8 414.9 412.5 414.5 408.9 414.5C405.3 414.5 402.2 415.1 399.7 416C397.2 416.9 395.3 418.4 393.9 420.1C392.5 421.9 391.5 424 391 426.5C390.1 430.8 390.9 434.4 393.3 437.4C395.7 440.4 399.4 442.3 404.6 443.3C408.9 444.1 413.1 443.8 417.1 442.4C421.1 441 425.5 438.6 430 435.3L433.5 417.9Z" fill="white"/>
<path d="M575.4 385.8C574.9 388.4 574.3 390.6 573.8 392.2C573.3 393.8 572.7 395.1 572.1 396C571.5 396.9 570.8 397.4 570.1 397.7C569.4 397.9 568.5 397.9 567.5 397.7C566.7 397.5 565.8 397.2 564.8 396.8C563.8 396.4 562.8 395.8 561.6 395.3C560.4 394.7 559.1 394.2 557.6 393.6C556.1 393 554.5 392.6 552.7 392.2C550.6 391.8 548.4 391.7 546.1 391.8C543.8 392 541.4 392.5 538.9 393.4C536.4 394.3 533.6 395.5 530.7 397.2C527.8 398.9 524.6 401.1 521.1 403.7L508.7 465C508.6 465.7 508.1 466.3 507.4 466.7C506.7 467.1 505.6 467.4 504 467.4C502.5 467.5 500.5 467.4 498 467C495.5 466.6 492.4 466.2 488.7 465.4C485 464.6 481.9 463.9 479.5 463.2C477.1 462.5 475.2 461.9 473.8 461.2C472.4 460.5 471.5 459.9 471 459.2C470.5 458.5 470.3 457.8 470.5 457.1L490.4 358.8C490.5 358.1 490.9 357.5 491.5 357C492.1 356.6 493.1 356.3 494.5 356.2C495.9 356.1 497.6 356.2 499.8 356.4C502 356.6 504.5 357.1 507.7 357.7C510.9 358.4 513.6 359 515.7 359.6C517.8 360.2 519.4 360.8 520.5 361.4C521.6 362 522.3 362.6 522.7 363.3C523.1 364 523.2 364.6 523.1 365.4L520.6 377.6C524.9 374.6 528.8 372.3 532.5 370.5C536.2 368.7 539.5 367.5 542.6 366.6C545.7 365.8 548.7 365.4 551.7 365.4C554.6 365.4 557.5 365.7 560.4 366.3C561.7 366.6 563.1 366.9 564.6 367.3C566.1 367.7 567.6 368.2 569.2 368.8C570.8 369.4 572.1 370 573.3 370.5C574.4 371.1 575.3 371.6 575.7 372.1C576.2 372.6 576.5 373.1 576.7 373.6C576.9 374.1 577 374.7 577 375.6C577 376.4 577 377.6 576.8 379.2C576.3 381.1 575.9 383.2 575.4 385.8Z" fill="white"/>
<path d="M593.801 339C593.801 339.1 593.801 339.1 593.801 339.1L593.701 339.2C593.601 339.2 593.501 339.2 593.401 339.3C593.301 339.4 593.101 339.3 592.901 339.3C592.701 339.3 592.601 339.3 592.501 339.3C592.401 339.3 592.301 339.3 592.201 339.2C592.101 339.2 592.101 339.1 592.101 339.1C592.101 339.1 592.001 339 592.001 338.9L590.901 336C590.801 335.7 590.601 335.4 590.501 335.1C590.401 334.8 590.201 334.6 590.001 334.4C589.801 334.2 589.601 334 589.301 333.9C589.001 333.8 588.701 333.7 588.301 333.7H587.201V338.9C587.201 339 587.201 339 587.201 339L587.101 339.1C587.001 339.1 587.001 339.1 586.901 339.2C586.801 339.2 586.701 339.2 586.501 339.2C586.301 339.2 586.201 339.2 586.101 339.2C586.001 339.2 585.901 339.2 585.801 339.1C585.701 339.1 585.701 339 585.701 339V338.9V327.6C585.701 327.4 585.801 327.2 585.901 327.1C586.001 327 586.201 327 586.301 327H588.901C589.201 327 589.501 327 589.701 327C589.901 327 590.101 327 590.301 327.1C590.801 327.2 591.201 327.3 591.601 327.5C592.001 327.7 592.301 327.9 592.501 328.2C592.701 328.5 592.901 328.8 593.101 329.1C593.201 329.4 593.301 329.8 593.301 330.3C593.301 330.7 593.201 331.1 593.101 331.4C593.001 331.7 592.801 332 592.601 332.3C592.401 332.6 592.101 332.8 591.901 332.9C591.601 333.1 591.301 333.2 590.901 333.4C591.101 333.5 591.301 333.6 591.401 333.7C591.501 333.8 591.701 334 591.901 334.2C592.101 334.4 592.201 334.6 592.301 334.9C592.401 335.1 592.601 335.4 592.701 335.7L593.801 338.4C593.901 338.6 593.901 338.8 594.001 338.9C593.801 338.9 593.801 338.9 593.801 339ZM591.301 330.4C591.301 329.9 591.201 329.5 591.001 329.2C590.801 328.9 590.401 328.6 589.901 328.5C589.701 328.5 589.601 328.4 589.401 328.4C589.201 328.4 588.901 328.4 588.601 328.4H587.201V332.5H588.801C589.201 332.5 589.601 332.4 589.901 332.3C590.201 332.2 590.501 332.1 590.701 331.9C590.901 331.7 591.101 331.5 591.201 331.2C591.301 331 591.301 330.7 591.301 330.4Z" fill="#ED1C24"/>
<path d="M589.701 344.5C595.997 344.5 601.101 339.396 601.101 333.1C601.101 326.804 595.997 321.7 589.701 321.7C583.405 321.7 578.301 326.804 578.301 333.1C578.301 339.396 583.405 344.5 589.701 344.5Z" stroke="#ED1C24" stroke-width="0.35" stroke-miterlimit="10"/>
<path d="M168.8 304.2C150.8 294.4 105.4 297.1 88.3004 298.6C87.4004 298.5 86.6004 298.4 85.8004 298.3C83.8004 298.1 82.1004 298.1 80.8004 298.3C79.5004 298.5 78.5004 298.8 77.9004 299.4C77.3004 299.9 76.8004 300.6 76.7004 301.4L40.5004 455.9C40.3004 456.7 40.4004 457.4 40.8004 458.1C41.2004 458.8 41.9004 459.4 43.0004 460.1C44.1004 460.8 45.7004 461.4 47.6004 462C49.6004 462.6 52.1004 463.2 55.1004 463.9C58.1004 464.6 60.7004 465 62.8004 465.2C64.8004 465.4 66.5004 465.4 67.8004 465.3C69.1004 465.2 70.1004 464.8 70.7004 464.3C71.3004 463.8 71.8004 463.2 71.9004 462.4L86.5004 399.8C99.9004 400.3 131.6 401.3 143.5 399.6C158.8 397.4 177.9 379.8 186 359.7C194.1 339.5 191.1 316.5 168.8 304.2ZM147.5 351.4C139 370.5 129.3 375.7 122.5 376.1C118.2 376.3 102.9 375.8 92.2004 375.4L104.6 322.3C112.1 322.2 124.2 322.1 131.3 322.4C142.3 322.8 156 332.3 147.5 351.4Z" fill="white"/>
<defs>
<linearGradient id="paint0_linear_225_348" x1="320.085" y1="165.86" x2="313.037" y2="240.573" gradientUnits="userSpaceOnUse">
<stop stop-color="#D7DF23"/>
<stop offset="0.0998064" stop-color="#D7E028"/>
<stop offset="0.2236" stop-color="#DAE139"/>
<stop offset="0.36" stop-color="#DDE354"/>
<stop offset="0.5057" stop-color="#E2E776"/>
<stop offset="0.6586" stop-color="#E9EC99"/>
<stop offset="0.8177" stop-color="#F1F4C4"/>
<stop offset="0.9789" stop-color="#FCFDF5"/>
<stop offset="1" stop-color="white"/>
</linearGradient>
<linearGradient id="paint1_linear_225_348" x1="563.207" y1="105.805" x2="393.128" y2="125.33" gradientUnits="userSpaceOnUse">
<stop stop-color="#D7DF23"/>
<stop offset="0.4944" stop-color="#F2B01D"/>
<stop offset="1" stop-color="#F15A29"/>
</linearGradient>
<linearGradient id="paint2_linear_225_348" x1="570.684" y1="170.925" x2="400.604" y2="190.451" gradientUnits="userSpaceOnUse">
<stop stop-color="#D7DF23"/>
<stop offset="0.4944" stop-color="#F2B01D"/>
<stop offset="1" stop-color="#F15A29"/>
</linearGradient>
</defs>
</svg>
