<svg width="30" height="30" viewBox="0 0 30 30" fill="none" xmlns="http://www.w3.org/2000/svg">
<path d="M12.9245 0.0959587C11.7788 0.304268 10.8739 0.610222 9.89748 1.11798C7.19597 2.52406 5.33421 5.00424 4.68324 8.04425C4.51399 8.84493 4.44239 10.5179 4.55305 11.3381C4.88504 13.8118 6.10235 16.0902 7.94458 17.6785C8.24402 17.9389 8.53045 18.2188 8.57602 18.2969C8.62809 18.3946 8.65413 18.7396 8.66064 19.2994V20.1587L8.4979 20.1978C8.25704 20.2564 7.87297 20.6209 7.74278 20.9203C7.65165 21.1156 7.6191 21.3435 7.6191 21.8707C7.6191 22.4696 7.63863 22.5998 7.76882 22.8472C7.9576 23.2052 8.39375 23.5437 8.73225 23.5958L8.98612 23.6414V24.429C8.98612 25.3339 9.08377 25.77 9.38321 26.2062C9.72171 26.6944 10.4052 27.072 10.9651 27.072H11.232L11.3817 27.5537C11.909 29.2136 13.7121 30.2096 15.3916 29.7735C16.0491 29.5977 16.4787 29.3568 16.967 28.8686C17.4422 28.3934 17.7807 27.8141 17.8718 27.3128C17.9174 27.0785 17.9239 27.072 18.1973 27.072C18.7701 27.072 19.382 26.74 19.7531 26.2322C20.0786 25.783 20.1827 25.3599 20.1827 24.429V23.6414L20.4301 23.5958C20.7621 23.5437 21.0745 23.3289 21.3219 22.9839C21.5042 22.717 21.5172 22.6584 21.5367 22.0074C21.5563 21.6039 21.5302 21.2133 21.4847 21.0635C21.4 20.7706 20.9183 20.2629 20.6709 20.1978L20.5017 20.1522L20.5212 19.2148L20.5408 18.2709L20.8011 18.0431C20.9444 17.9194 21.2698 17.6265 21.5172 17.4051C22.9558 16.0967 24.0495 14.1373 24.4921 12.0737C24.7004 11.1103 24.7004 9.03371 24.4921 8.09632C24.0169 5.89606 23.099 4.24912 21.5237 2.74539C20.007 1.29374 18.2624 0.427952 16.1793 0.0894489C15.4307 -0.0342331 13.634 -0.0277233 12.9245 0.0959587ZM16.3095 1.58016C19.4406 2.2832 21.8492 4.45743 22.8061 7.44536C23.1251 8.44784 23.2097 8.99466 23.2032 10.0818C23.1902 12.6986 22.1486 14.938 20.1306 16.676C19.662 17.0731 19.4797 17.288 19.3169 17.5939C19.1151 17.9845 19.1086 18.0105 19.0891 19.0456L19.0631 20.0936L18.4772 20.1196C17.9109 20.1392 17.8848 20.1457 17.7025 20.354C17.4422 20.6469 17.4422 20.9985 17.7025 21.2914L17.8913 21.5062L19.0045 21.5257L20.1176 21.5453V21.8707V22.1897H14.5844H9.05122V21.8642V21.5453L11.9545 21.5257L14.8578 21.5062L15.0141 21.3239C15.2289 21.0701 15.2289 20.6079 15.0141 20.3345L14.8578 20.1392L12.4818 20.1196L10.1058 20.1001L10.0797 19.0456C10.0537 17.7632 9.9821 17.5548 9.37019 16.9885C8.25704 15.973 7.67768 15.3285 7.24805 14.6385C7.03323 14.3 6.5385 13.265 6.42132 12.92C5.94612 11.5269 5.81592 9.8995 6.06329 8.53898C6.25858 7.49092 6.79237 6.20201 7.45636 5.19302C7.8209 4.64621 8.96009 3.47447 9.53944 3.05134C10.4573 2.37434 12.0131 1.72988 13.2109 1.51506C13.8553 1.4044 15.678 1.43695 16.3095 1.58016ZM18.7506 24.2533C18.7506 25.0149 18.6725 25.3274 18.4446 25.5096C18.2819 25.6398 18.2038 25.6398 14.5844 25.6398C10.9651 25.6398 10.8869 25.6398 10.7242 25.5096C10.4964 25.3274 10.4182 25.0149 10.4182 24.2533V23.6218H14.5844H18.7506V24.2533ZM16.3681 27.2152C16.1988 27.7685 15.4567 28.3218 14.7537 28.4129C14.272 28.4846 13.6145 28.2372 13.2369 27.8466C12.9896 27.5927 12.7617 27.2282 12.7617 27.098C12.7617 27.085 13.5819 27.072 14.5909 27.072H16.4136L16.3681 27.2152Z" fill="#808080"/>
<path d="M15.9505 20.2107C15.6901 20.3865 15.625 20.5036 15.625 20.8226C15.625 20.9854 15.6641 21.1676 15.7096 21.2262C16.0872 21.6949 16.7707 21.6233 16.992 21.0895C17.2524 20.4581 16.5103 19.8397 15.9505 20.2107Z" fill="#808080"/>
<path d="M13.6079 4.20364C11.3425 4.60072 9.55886 6.18908 8.87534 8.43491C8.71911 8.94917 8.70609 9.11191 8.69958 10.0168C8.69307 11.1234 8.77119 11.54 9.13573 12.3928C10.4377 15.4588 14.07 16.8454 17.097 15.4263C18.5747 14.7297 19.6293 13.571 20.1761 12.0152C21.3609 8.66275 19.2778 4.97828 15.8016 4.26222C15.3394 4.16458 14.0245 4.13203 13.6079 4.20364ZM15.5282 5.68784C16.0295 5.79199 17.0254 6.26068 17.3835 6.56013L17.6113 6.75542L17.442 6.93769C17.3119 7.0809 14.5778 10.0688 14.2198 10.4659C14.1547 10.5375 14.031 10.4659 13.4972 10.0363C12.7225 9.41136 12.6509 9.36579 12.3059 9.36579C11.9284 9.36579 11.655 9.63919 11.655 10.0168C11.655 10.1665 11.6875 10.3422 11.7201 10.4138C11.8047 10.5636 13.673 12.0803 13.9464 12.217C14.1091 12.2951 14.1872 12.2951 14.3955 12.2365C14.6103 12.1714 14.9554 11.8264 16.5828 10.0493C18.783 7.64724 18.5357 7.79045 18.8546 8.74737C18.9979 9.17701 19.0304 9.39834 19.0369 9.98421C19.0434 10.85 18.9588 11.221 18.5747 12.0347C18.3208 12.562 18.1972 12.7313 17.7155 13.2065C16.7911 14.1243 15.8667 14.5084 14.5973 14.5084C13.7836 14.5084 13.3214 14.3977 12.5663 14.0397C12.1237 13.8249 11.9088 13.6687 11.4532 13.213C10.978 12.7313 10.8413 12.549 10.5939 12.0347C10.2163 11.2406 10.1252 10.8565 10.1252 10.0168C10.1317 9.00125 10.4246 8.14848 11.0431 7.34129C12.0976 5.96775 13.8227 5.3298 15.5282 5.68784Z" fill="#808080"/>
<path d="M1.89163 4.72432C1.48153 4.85451 1.26671 5.18651 1.3318 5.56407C1.37737 5.80492 1.89163 6.40381 2.30825 6.70976C2.73138 7.01572 3.24564 6.89854 3.43442 6.45589C3.59065 6.06531 3.51254 5.87002 2.9462 5.3167C2.38637 4.76338 2.15853 4.63319 1.89163 4.72432Z" fill="#808080"/>
<path d="M26.889 4.75041C26.6872 4.82853 25.8735 5.62271 25.7433 5.86356C25.6262 6.0914 25.6262 6.26716 25.7498 6.50151C25.867 6.72935 26.1534 6.89209 26.4203 6.89209C26.7979 6.89209 27.7548 5.98074 27.8394 5.54459C27.898 5.23864 27.7288 4.91967 27.4424 4.78296C27.2015 4.66579 27.1169 4.65928 26.889 4.75041Z" fill="#808080"/>
<path d="M0.419683 9.04044C-0.0164635 9.2162 -0.146657 9.88019 0.191845 10.2187L0.380625 10.4075H1.37009H2.35956L2.54834 10.2187C2.88684 9.88019 2.78269 9.30083 2.34654 9.07299C2.13823 8.96233 0.66705 8.93629 0.419683 9.04044Z" fill="#808080"/>
<path d="M26.7767 9.09903C26.5163 9.26177 26.4316 9.418 26.4316 9.75651C26.4316 9.97132 26.4707 10.069 26.6204 10.2187L26.8092 10.4075H27.7987H28.7881L28.9769 10.2187C29.2438 9.94529 29.2438 9.52216 28.9769 9.22271L28.7881 9.0079L27.8833 8.98837C27.0826 8.97535 26.9654 8.98186 26.7767 9.09903Z" fill="#808080"/>
<path d="M1.95687 13.0504C1.67696 13.3238 1.41006 13.6298 1.371 13.7339C1.17571 14.2026 1.52723 14.7039 2.06103 14.7039C2.32792 14.7039 2.38 14.6713 2.86822 14.2091C3.4606 13.6428 3.5973 13.3629 3.45409 13.0113C3.33041 12.7119 3.09606 12.5557 2.75756 12.5557C2.47764 12.5557 2.43208 12.5817 1.95687 13.0504Z" fill="#808080"/>
<path d="M25.9638 12.6859C25.8727 12.751 25.762 12.9007 25.7165 13.0113C25.5733 13.3564 25.71 13.6363 26.2958 14.2026C26.7841 14.6778 26.8231 14.7039 27.103 14.7039C27.6433 14.7039 28.0014 14.2091 27.7996 13.7339C27.7605 13.6298 27.4936 13.3238 27.2137 13.0504C26.7385 12.5817 26.6929 12.5557 26.413 12.5557C26.2242 12.5557 26.068 12.6012 25.9638 12.6859Z" fill="#808080"/>
</svg>
