<svg width="30" height="30" viewBox="0 0 30 30" fill="none" xmlns="http://www.w3.org/2000/svg">
<path d="M17.3625 0.0867558C16.9 0.199282 16.2938 0.493101 15.8938 0.799421L15.5688 1.04948L15.3625 0.943205C15.25 0.886942 15 0.830679 14.8 0.818176C14.1375 0.768164 13.525 1.19326 13.3063 1.84967C13.1438 2.34978 13.2188 2.57484 14.45 5.20045L15.6125 7.67603L15.4125 7.71354C15.2063 7.7448 9.71875 8.24491 9.5625 8.24491C9.5125 8.24491 10.3562 7.3572 11.4375 6.2757L13.4062 4.30649L13.0625 3.96266C12.875 3.77512 12.6938 3.61883 12.6562 3.61883C12.625 3.62508 11.45 4.7566 10.0437 6.13817L7.5 8.65126V8.91382C7.5 9.46395 7.6875 9.50771 9.375 9.33892C9.875 9.28891 10.3313 9.24515 10.3938 9.24515C10.4875 9.24515 10.5 9.31391 10.5 9.87029V10.4954H6.375C2.425 10.4954 2.24375 10.5017 2.13125 10.6142C2.06875 10.6767 1.6875 11.7207 1.25 13.021L0.4875 15.3091L0.5125 16.2655C0.53125 17.172 0.5375 17.2345 0.7125 17.5908C0.95 18.0722 1.425 18.5473 1.90625 18.7849C2.25625 18.9537 2.33125 18.9662 3 18.9662C3.65625 18.9662 3.75 18.9537 4.06875 18.7911C4.2625 18.6974 4.55 18.5036 4.7125 18.366L5 18.1097L5.2875 18.366C5.45 18.5036 5.7375 18.6974 5.93125 18.7911C6.25 18.9537 6.34375 18.9662 7 18.9662C7.65625 18.9662 7.75 18.9537 8.06875 18.7911C8.2625 18.6974 8.55 18.5036 8.7125 18.366L9 18.1097L9.2875 18.366C9.45 18.5036 9.7375 18.6974 9.93125 18.7911C10.25 18.9537 10.3438 18.9662 11 18.9662C11.6562 18.9662 11.75 18.9537 12.0688 18.7911C12.2625 18.6974 12.55 18.5036 12.7125 18.366L13 18.1097L13.2875 18.366C13.45 18.5036 13.7375 18.6974 13.9313 18.7911C14.25 18.9537 14.3438 18.9662 15 18.9662C15.6562 18.9662 15.75 18.9537 16.0688 18.7911C16.2625 18.6974 16.55 18.5036 16.7125 18.366L17 18.1097L17.2875 18.366C17.45 18.5036 17.7375 18.6974 17.9312 18.7911C18.25 18.9537 18.3438 18.9662 19 18.9662C19.6562 18.9662 19.75 18.9537 20.0688 18.7911C20.2625 18.6974 20.55 18.5036 20.7125 18.366L21 18.1097L21.2875 18.366C21.45 18.5036 21.7375 18.6974 21.9312 18.7911C22.25 18.9537 22.3438 18.9662 23 18.9662C23.6562 18.9662 23.75 18.9537 24.0688 18.7911C24.2625 18.6974 24.55 18.5036 24.7125 18.366L25 18.1097L25.2875 18.366C25.675 18.7036 26.1875 18.9412 26.6375 18.9787L27 19.0162V23.0046V26.9993H26.5H26V23.6235C26 20.329 26 20.2477 25.875 20.1227C25.7563 20.0039 25.6688 19.9977 23.5 19.9977C21.3313 19.9977 21.2437 20.0039 21.125 20.1227C21 20.2477 21 20.329 21 23.6235V26.9993H12H3V23.4985V19.9977H2.5H2V23.4985V26.9993H1.5625C1.05 26.9993 0.75 27.1056 0.44375 27.3931C0.14375 27.6807 0 28.0245 0 28.4871C0 29.131 0.3 29.6312 0.84375 29.8812C1.0875 29.9937 1.5875 30 15 30C28.4125 30 28.9125 29.9937 29.1562 29.8812C29.6938 29.6312 30 29.131 30 28.4996C30 27.5807 29.4062 27.0055 28.4563 26.9993H28V22.9171V18.8411L28.3188 18.6536C28.7188 18.4223 29.0688 18.0222 29.2938 17.5658C29.4563 17.2408 29.4688 17.1532 29.4875 16.2655L29.5125 15.3091L28.75 13.021C28.3125 11.7207 27.9312 10.6767 27.8687 10.6142C27.7563 10.5017 27.575 10.4954 23.625 10.4954H19.5V9.28266V8.06987L19.7375 7.99485C20.6875 7.68853 21.6125 6.88835 22.05 5.99439C22.3938 5.28797 22.5 4.85037 22.5 4.08769C22.5 3.32501 22.3938 2.88741 22.05 2.18099C21.5625 1.18076 20.5438 0.374323 19.4062 0.0867558C18.9438 -0.0320225 17.85 -0.0257702 17.3625 0.0867558ZM19.4937 1.24328C19.925 1.41207 20.275 1.65587 20.625 2.03096C21.2 2.64985 21.4375 3.24999 21.4375 4.08769C21.4375 5.0004 21.1313 5.68806 20.4375 6.33197C19.8875 6.83833 19.35 7.06339 18.4813 7.15091C17.9062 7.20717 17.8 7.31345 17.825 7.80731C17.8375 8.09488 17.8188 8.20115 17.725 8.30118C17.5938 8.44496 17.325 8.47622 17.175 8.35119C17.0625 8.26367 14.3125 2.4123 14.3125 2.26226C14.3125 2.10598 14.5625 1.86842 14.7312 1.86842C14.825 1.86842 14.975 1.96844 15.125 2.11848C15.4563 2.45606 15.7125 2.46231 16.0125 2.14349C16.3375 1.78715 16.9062 1.38706 17.3 1.24328C17.9875 0.980715 18.8375 0.980715 19.4937 1.24328ZM16.2938 8.98884C16.6187 9.37018 16.975 9.51396 17.525 9.4827C17.8938 9.46395 18.0312 9.43269 18.2375 9.28891L18.5 9.12012V9.80778V10.4954H15H11.5V9.80778V9.12012L11.7063 9.11387C11.8125 9.11387 12.725 9.0326 13.7188 8.93883C16.1938 8.69502 16.0375 8.69502 16.2938 8.98884ZM5.3125 11.5582C5.3125 11.6145 4.725 14.2963 4.59375 14.8527L4.5625 14.9965H3.15C2.04375 14.9965 1.74375 14.9777 1.7625 14.9152C1.78125 14.8777 2.04375 14.09 2.35 13.1648L2.90625 11.4957H4.10625C4.89375 11.4957 5.3125 11.5207 5.3125 11.5582ZM8.875 11.6332C8.875 11.8145 8.56875 14.6652 8.525 14.8527L8.5 14.9965H7.09375C6.16875 14.9965 5.6875 14.9715 5.6875 14.934C5.6875 14.8777 6.275 12.1958 6.40625 11.6332C6.4375 11.4957 6.44375 11.4957 7.65625 11.4957H8.875V11.6332ZM12.5 13.2461V14.9965H11.0625H9.625V14.8527C9.625 14.6777 9.93125 11.827 9.975 11.6332C10 11.4957 10.0063 11.4957 11.25 11.4957H12.5V13.2461ZM16.5 13.2461V14.9965H15H13.5V13.2461V11.4957H15H16.5V13.2461ZM20.025 11.6332C20.0688 11.827 20.375 14.6777 20.375 14.8527V14.9965H18.9375H17.5V13.2461V11.4957H18.75C19.9937 11.4957 20 11.4957 20.025 11.6332ZM23.5938 11.6332C23.725 12.1958 24.3125 14.8777 24.3125 14.934C24.3125 14.9715 23.8313 14.9965 22.9062 14.9965H21.5L21.475 14.8527C21.4312 14.6652 21.125 11.8145 21.125 11.6332V11.4957H22.3438C23.5562 11.4957 23.5625 11.4957 23.5938 11.6332ZM27.65 13.1648C27.9563 14.09 28.2188 14.8777 28.2375 14.9152C28.2563 14.9777 27.9563 14.9965 26.85 14.9965H25.4375L25.4062 14.8527C25.275 14.2963 24.6875 11.6145 24.6875 11.5582C24.6875 11.5207 25.1063 11.4957 25.8938 11.4957H27.0938L27.65 13.1648ZM4.475 16.4093C4.4 17.122 4.11875 17.5721 3.59375 17.8159C3.0625 18.0597 2.36875 17.9222 1.95625 17.4908C1.69375 17.2158 1.575 16.9219 1.525 16.4093L1.48125 15.9967H3H4.51875L4.475 16.4093ZM8.475 16.4093C8.425 16.9219 8.30625 17.2158 8.04375 17.4908C7.63125 17.9222 6.9375 18.0597 6.40625 17.8159C5.88125 17.5721 5.6 17.122 5.525 16.4093L5.48125 15.9967H7H8.51875L8.475 16.4093ZM12.475 16.4093C12.425 16.9219 12.3063 17.2158 12.0437 17.4908C11.6313 17.9222 10.9375 18.0597 10.4062 17.8159C9.88125 17.5721 9.6 17.122 9.525 16.4093L9.48125 15.9967H11H12.5188L12.475 16.4093ZM16.475 16.4093C16.4 17.122 16.1187 17.5721 15.5938 17.8159C15.0625 18.0597 14.3688 17.9222 13.9563 17.4908C13.6938 17.2158 13.575 16.9219 13.525 16.4093L13.4812 15.9967H15H16.5188L16.475 16.4093ZM20.475 16.4093C20.4 17.122 20.1187 17.5721 19.5938 17.8159C19.0625 18.0597 18.3687 17.9222 17.9563 17.4908C17.6938 17.2158 17.575 16.9219 17.525 16.4093L17.4813 15.9967H19H20.5188L20.475 16.4093ZM24.475 16.4093C24.4 17.122 24.1187 17.5721 23.5938 17.8159C23.0625 18.0597 22.3687 17.9222 21.9563 17.4908C21.6938 17.2158 21.575 16.9219 21.525 16.4093L21.4813 15.9967H23H24.5188L24.475 16.4093ZM28.475 16.4093C28.425 16.9219 28.3062 17.2158 28.0438 17.4908C27.3438 18.2285 26.1 18.0159 25.6812 17.0907C25.6187 16.9532 25.55 16.6469 25.525 16.4156L25.4813 15.9967H27H28.5188L28.475 16.4093ZM25 23.9986V26.9993H23.5H22V23.9986V20.9979H23.5H25V23.9986ZM28.6562 28.0871C29.0375 28.2496 29.0375 28.7497 28.6562 28.9122C28.3313 29.0435 1.66875 29.0435 1.34375 28.9122C0.96875 28.756 0.9625 28.2496 1.33125 28.0933C1.6375 27.9558 28.3375 27.9558 28.6562 28.0871Z" fill="#808080"/>
</svg>
