<svg width="30" height="32" viewBox="0 0 30 32" fill="none" xmlns="http://www.w3.org/2000/svg">
<path d="M14.6095 3.50146C14.4562 3.41234 14.3627 3.24027 14.3032 3.09062M14.6095 3.50146C14.6095 3.50144 14.6095 3.50141 14.6094 3.50139L14.3032 3.09062M14.6095 3.50146C14.7596 3.58884 14.9204 3.64013 15.0838 3.63197C15.2518 3.62357 15.3996 3.55323 15.5173 3.438C15.7397 3.22018 15.8467 2.85337 15.8722 2.42627C15.8926 2.14471 15.9004 1.90614 15.8901 1.70701C15.8798 1.50962 15.8511 1.33404 15.7875 1.18783C15.7204 1.03364 15.6154 0.914607 15.4669 0.840262C15.3271 0.770197 15.1687 0.750021 15.0096 0.750021C14.82 0.750021 14.6337 0.766209 14.4837 0.856027C14.316 0.956504 14.2425 1.11627 14.2026 1.27912M14.6095 3.50146L14.2026 1.27912M14.3032 3.09062C14.2386 2.92792 14.1913 2.73172 14.1611 2.52798M14.3032 3.09062L14.1611 2.52798M14.1611 2.52798C14.1016 2.12536 14.1029 1.64865 14.2026 1.27912M14.1611 2.52798L14.2026 1.27912" fill="#808080" stroke="#808080" stroke-width="0.5"/>
<path d="M23.051 4.51995L23.051 4.51994L23.0527 4.51798C23.2308 4.31321 23.3765 4.15045 23.4986 4.03046C23.6159 3.91519 23.7345 3.81551 23.8598 3.76522C23.9276 3.73801 24.0026 3.72293 24.0826 3.73047C24.1626 3.738 24.2317 3.76665 24.2899 3.80357C24.3941 3.86968 24.481 3.97507 24.5555 4.07199C24.6359 4.16823 24.7156 4.27217 24.7632 4.38893C24.8168 4.52026 24.8251 4.65448 24.7878 4.79905C24.7534 4.9322 24.6815 5.06929 24.5875 5.21823C24.492 5.36936 24.3621 5.55041 24.1977 5.77282L24.1978 5.77283L24.1962 5.77484C23.9729 6.07083 23.7916 6.28676 23.6202 6.42229C23.4336 6.56992 23.2458 6.63226 23.0285 6.60516C22.8599 6.58413 22.6888 6.53003 22.5672 6.37823C22.4548 6.23814 22.4194 6.05549 22.4046 5.87106C22.3677 5.41031 22.5761 5.07746 23.051 4.51995Z" fill="#808080" stroke="#808080" stroke-width="0.5"/>
<path d="M5.11319 6.28154C4.87184 5.94131 4.69983 5.62049 4.62035 5.33735C4.54305 5.06196 4.54012 4.76735 4.72364 4.54525C4.81739 4.42275 4.94766 4.34588 5.10101 4.32816C5.24814 4.31117 5.39441 4.35088 5.52747 4.41532C5.79089 4.54288 6.07244 4.80108 6.34939 5.15015C6.6603 5.53364 6.87286 5.8635 6.94893 6.16197C6.98861 6.31765 6.99308 6.47145 6.95057 6.6209C6.9083 6.76951 6.82475 6.89567 6.71664 7.00487C6.61406 7.10941 6.48583 7.18561 6.33178 7.20323C6.17991 7.22059 6.03487 7.17734 5.90348 7.10371C5.65086 6.96212 5.39078 6.67531 5.11319 6.28154Z" fill="#808080" stroke="#808080" stroke-width="0.5"/>
<path d="M2.22917 13.2729L2.22917 13.2729L2.23072 13.2729C2.63521 13.2903 2.94165 13.3212 3.16553 13.3837C3.39148 13.4468 3.57567 13.5545 3.67361 13.7536C3.76209 13.9122 3.81629 14.086 3.79077 14.2618C3.76348 14.4499 3.65213 14.594 3.50129 14.6947C3.3563 14.7914 3.16857 14.8535 2.95606 14.8926C2.74089 14.9322 2.4843 14.9512 2.18957 14.9512C1.91098 14.9512 1.67519 14.9392 1.48249 14.9068C1.29283 14.8749 1.11844 14.8192 0.985121 14.7116C0.840431 14.5949 0.76951 14.4383 0.753612 14.2632C0.738863 14.1007 0.770962 13.9215 0.822675 13.7352C0.844902 13.6497 0.880172 13.5472 0.958387 13.4603C1.04182 13.3676 1.14856 13.3198 1.26143 13.2941C1.3694 13.2695 1.49932 13.2614 1.64997 13.26C1.80309 13.2586 1.99382 13.2642 2.22917 13.2729Z" fill="#808080" stroke="#808080" stroke-width="0.5"/>
<path d="M27.6823 13.2729L27.6823 13.2729L27.6838 13.2729C28.0883 13.2903 28.3948 13.3212 28.6187 13.3837C28.8446 13.4468 29.0288 13.5545 29.1267 13.7536C29.2152 13.9122 29.2694 14.086 29.2439 14.2618C29.2166 14.4499 29.1053 14.594 28.9544 14.6947C28.8094 14.7914 28.6217 14.8535 28.4092 14.8926C28.194 14.9322 27.9374 14.9512 27.6427 14.9512C27.3641 14.9512 27.1283 14.9392 26.9356 14.9068C26.746 14.8749 26.5716 14.8192 26.4382 14.7116C26.2936 14.5949 26.2226 14.4383 26.2067 14.2632C26.192 14.1007 26.2241 13.9215 26.2758 13.7352C26.298 13.6497 26.3333 13.5472 26.4115 13.4603C26.4949 13.3676 26.6017 13.3198 26.7146 13.2941C26.8225 13.2695 26.9524 13.2614 27.1031 13.26C27.2562 13.2586 27.4469 13.2642 27.6823 13.2729Z" fill="#808080" stroke="#808080" stroke-width="0.5"/>
<path d="M23.6755 22.4902C23.3695 22.1172 23.1603 21.8033 23.0776 21.5177C23.0345 21.369 23.0239 21.2222 23.0549 21.0771C23.0858 20.9327 23.1544 20.8063 23.2454 20.6928C23.3337 20.5827 23.444 20.4833 23.5861 20.4361C23.7361 20.3862 23.8854 20.4061 24.0233 20.4683C24.1549 20.5275 24.282 20.6273 24.408 20.7504C24.5358 20.8752 24.6739 21.0356 24.8257 21.2294C25.1223 21.608 25.3274 21.9176 25.408 22.1952C25.4503 22.3411 25.4606 22.485 25.4288 22.6281C25.3972 22.77 25.3281 22.8935 25.2386 23.0052C25.152 23.1132 25.0443 23.2129 24.9049 23.2612C24.756 23.3128 24.6084 23.2932 24.4725 23.2318C24.3439 23.1738 24.2191 23.0759 24.0948 22.9563C23.9686 22.8349 23.8301 22.6787 23.6755 22.4902Z" fill="#808080" stroke="#808080" stroke-width="0.5"/>
<path d="M5.17554 21.3497L5.17553 21.3497L5.17649 21.3485C5.35126 21.1244 5.48927 20.9487 5.60224 20.8165C5.71274 20.6871 5.81349 20.582 5.91504 20.5124C6.02796 20.4349 6.14857 20.3967 6.2847 20.4109C6.39981 20.4229 6.50878 20.4723 6.59731 20.5135L6.59731 20.5135L6.59916 20.5143C6.75903 20.5902 6.873 20.7169 6.92722 20.8814C6.9787 21.0375 6.97012 21.2077 6.93036 21.3725C6.85144 21.6997 6.63173 22.0802 6.31354 22.4735L6.31343 22.4736C6.14414 22.6826 5.98778 22.854 5.84274 22.9837C5.70041 23.111 5.55374 23.2123 5.40274 23.2603C5.23998 23.312 5.0705 23.3012 4.92043 23.2017C4.78448 23.1115 4.69366 22.9672 4.628 22.8139C4.58915 22.7251 4.55715 22.6268 4.55315 22.5146C4.54909 22.4003 4.57461 22.2911 4.62192 22.1796C4.71028 21.9714 4.89351 21.7159 5.17554 21.3497Z" fill="#808080" stroke="#808080" stroke-width="0.5"/>
<path d="M14.6555 13.4846L12.4813 15.5731L12.0618 16.6959C11.6676 17.7462 11.6549 17.8307 11.8583 18.0238C12.0491 18.217 12.1508 18.1928 13.3205 17.8186L14.5792 17.4202L16.7534 15.3437C17.9485 14.1969 18.9275 13.1948 18.9275 13.1103C18.9275 12.555 17.7451 11.4081 17.1729 11.4081C16.8932 11.4081 16.4228 11.7944 14.6555 13.4846ZM17.5798 12.724C17.8214 12.9655 17.8849 13.0983 17.7832 13.1586C17.6179 13.2552 16.8678 12.6274 16.9695 12.4705C17.0839 12.3015 17.2111 12.3619 17.5798 12.724ZM15.6854 15.1506L14.4139 16.3578L14.0325 15.9957L13.6511 15.6335L14.9225 14.4262L16.1939 13.219L16.5754 13.5812L16.9568 13.9433L15.6854 15.1506ZM13.3078 16.8528C13.0408 17.0218 12.9772 16.9735 13.0408 16.72C13.0916 16.5268 13.1425 16.5027 13.2951 16.6114C13.4349 16.7321 13.4349 16.7804 13.3078 16.8528Z" fill="#808080"/>
<mask id="path-9-outside-1_79_858" maskUnits="userSpaceOnUse" x="5.49219" y="6" width="19" height="26" fill="black">
<rect fill="white" x="5.49219" y="6" width="19" height="26"/>
<path d="M13.5331 6.57657C10.5831 7.05431 7.92644 9.33631 6.90508 12.2638C6.58454 13.1888 6.49219 13.7427 6.49219 14.7287C6.49219 15.9282 6.64974 16.6041 7.19845 17.7832C7.51898 18.4592 7.76346 18.8251 8.65443 19.928C9.69753 21.224 10.0452 21.8898 10.1322 22.764L10.1702 23.1502L10.0018 23.2163C9.79532 23.2926 9.52368 23.5772 9.41502 23.8211C9.2955 24.0803 9.30637 24.5174 9.43676 24.7919C9.63234 25.2035 10.0996 25.5034 10.5559 25.5034H10.7026V25.8795V26.2505L10.344 26.281C9.89854 26.3115 9.72469 26.4386 9.72469 26.7283C9.72469 27.0129 9.90941 27.1298 10.3549 27.1298H10.7026V27.6126V28.0954H10.4364C10.1159 28.0954 9.84965 28.1767 9.77902 28.2987C9.6921 28.4512 9.71383 28.685 9.82792 28.812C9.91484 28.9137 9.9909 28.934 10.344 28.9493L10.7569 28.9696L10.8167 29.178C11.0557 30.0064 11.8 30.6976 12.6856 30.9161C13.1582 31.028 17.1567 31.028 17.6294 30.9161C18.5149 30.6976 19.2592 30.0064 19.4983 29.178L19.558 28.9696L19.9709 28.9493C20.324 28.934 20.4001 28.9137 20.487 28.812C20.6011 28.685 20.6229 28.4512 20.5359 28.2987C20.4653 28.1767 20.1991 28.0954 19.8786 28.0954H19.6124V27.6126V27.1298H19.9601C20.4055 27.1298 20.5903 27.0129 20.5903 26.7283C20.5903 26.4436 20.4218 26.3217 19.9764 26.281L19.6124 26.2505V25.8795V25.5034H19.8025C20.1882 25.5034 20.65 25.2239 20.851 24.8681C21.1553 24.3192 20.9543 23.5924 20.4001 23.2773L20.1611 23.1401L20.1937 22.8351C20.2643 22.149 20.5903 21.2799 20.9814 20.7259C21.0901 20.5735 21.378 20.2279 21.6225 19.9636C22.6601 18.8353 23.3121 17.6155 23.6435 16.1823C23.7467 15.7401 23.763 15.5165 23.763 14.5763C23.763 13.3971 23.6978 12.9499 23.3827 12.0554C23.1763 11.4607 22.6058 10.3934 22.2147 9.87504C21.7746 9.29057 20.8076 8.39098 20.1937 7.98439C19.2429 7.35926 18.0206 6.86627 16.8525 6.63756C16.1408 6.50033 14.2067 6.46476 13.5331 6.57657ZM16.8579 7.53206C18.3519 7.86241 19.6124 8.53329 20.6989 9.57518C22.1114 10.9322 22.872 12.6805 22.872 14.5763C22.872 16.3805 22.1984 18.0119 20.851 19.4604C20.3403 20.0093 20.1611 20.2533 19.884 20.7666C19.5309 21.4375 19.4168 21.8237 19.2538 22.8961L19.2266 23.0638H17.4121H15.5921V21.8441V20.6243H16.2821C16.9123 20.6243 16.9829 20.6141 17.097 20.5125C17.2763 20.3549 17.2654 20.0703 17.0807 19.9077L16.9394 19.7857H15.1575H13.3755L13.2343 19.9077C13.055 20.0652 13.0441 20.3397 13.2125 20.5074C13.3212 20.6192 13.3701 20.6243 14.0275 20.6243H14.7229V21.8441V23.0638H12.9083H11.0992L11.0612 22.6573C10.9905 21.9101 10.7243 21.2189 10.2408 20.5125C10.0996 20.3092 9.67036 19.74 9.29007 19.2521C8.50232 18.2407 8.25241 17.8493 7.94274 17.1683C7.10609 15.3335 7.23648 13.326 8.3176 11.3743C9.46392 9.29565 11.474 7.837 13.7395 7.43549C14.0383 7.37959 14.4458 7.36942 15.2118 7.37959C16.1082 7.39992 16.3636 7.42025 16.8579 7.53206ZM19.8134 23.9787C20.1122 24.0803 20.1611 24.4513 19.8894 24.5835C19.8242 24.6191 19.357 24.6394 18.6888 24.6394H17.5914L17.4338 24.7868C17.2654 24.9443 17.2382 25.0866 17.3415 25.2645C17.4555 25.4729 17.5533 25.4983 18.1346 25.5034H18.6888V25.8846V26.2658H15.1575H11.6262V25.8846V25.5034H12.1423C12.7073 25.5034 12.8866 25.4526 12.9789 25.2645C13.0767 25.0663 13.0496 24.9443 12.8811 24.7868L12.7236 24.6394H11.6262C10.5016 24.6394 10.3712 24.6191 10.2625 24.431C10.181 24.2836 10.2951 24.0498 10.4798 23.9838C10.6809 23.9126 19.5961 23.9126 19.8134 23.9787ZM18.6888 27.6126V28.0954H15.1575H11.6262V27.6126V27.1298H15.1575H18.6888V27.6126ZM18.5801 29.0102C18.5801 29.2491 18.102 29.7624 17.6837 29.9657L17.4121 30.103H15.1575H12.9029L12.6312 29.9708C12.4845 29.8946 12.2944 29.7777 12.2129 29.7065C12.0391 29.5541 11.7348 29.1221 11.7348 29.0255C11.7348 28.9696 12.3813 28.9594 15.1575 28.9594C17.4881 28.9594 18.5801 28.9747 18.5801 29.0102Z"/>
</mask>
<path d="M13.5331 6.57657C10.5831 7.05431 7.92644 9.33631 6.90508 12.2638C6.58454 13.1888 6.49219 13.7427 6.49219 14.7287C6.49219 15.9282 6.64974 16.6041 7.19845 17.7832C7.51898 18.4592 7.76346 18.8251 8.65443 19.928C9.69753 21.224 10.0452 21.8898 10.1322 22.764L10.1702 23.1502L10.0018 23.2163C9.79532 23.2926 9.52368 23.5772 9.41502 23.8211C9.2955 24.0803 9.30637 24.5174 9.43676 24.7919C9.63234 25.2035 10.0996 25.5034 10.5559 25.5034H10.7026V25.8795V26.2505L10.344 26.281C9.89854 26.3115 9.72469 26.4386 9.72469 26.7283C9.72469 27.0129 9.90941 27.1298 10.3549 27.1298H10.7026V27.6126V28.0954H10.4364C10.1159 28.0954 9.84965 28.1767 9.77902 28.2987C9.6921 28.4512 9.71383 28.685 9.82792 28.812C9.91484 28.9137 9.9909 28.934 10.344 28.9493L10.7569 28.9696L10.8167 29.178C11.0557 30.0064 11.8 30.6976 12.6856 30.9161C13.1582 31.028 17.1567 31.028 17.6294 30.9161C18.5149 30.6976 19.2592 30.0064 19.4983 29.178L19.558 28.9696L19.9709 28.9493C20.324 28.934 20.4001 28.9137 20.487 28.812C20.6011 28.685 20.6229 28.4512 20.5359 28.2987C20.4653 28.1767 20.1991 28.0954 19.8786 28.0954H19.6124V27.6126V27.1298H19.9601C20.4055 27.1298 20.5903 27.0129 20.5903 26.7283C20.5903 26.4436 20.4218 26.3217 19.9764 26.281L19.6124 26.2505V25.8795V25.5034H19.8025C20.1882 25.5034 20.65 25.2239 20.851 24.8681C21.1553 24.3192 20.9543 23.5924 20.4001 23.2773L20.1611 23.1401L20.1937 22.8351C20.2643 22.149 20.5903 21.2799 20.9814 20.7259C21.0901 20.5735 21.378 20.2279 21.6225 19.9636C22.6601 18.8353 23.3121 17.6155 23.6435 16.1823C23.7467 15.7401 23.763 15.5165 23.763 14.5763C23.763 13.3971 23.6978 12.9499 23.3827 12.0554C23.1763 11.4607 22.6058 10.3934 22.2147 9.87504C21.7746 9.29057 20.8076 8.39098 20.1937 7.98439C19.2429 7.35926 18.0206 6.86627 16.8525 6.63756C16.1408 6.50033 14.2067 6.46476 13.5331 6.57657ZM16.8579 7.53206C18.3519 7.86241 19.6124 8.53329 20.6989 9.57518C22.1114 10.9322 22.872 12.6805 22.872 14.5763C22.872 16.3805 22.1984 18.0119 20.851 19.4604C20.3403 20.0093 20.1611 20.2533 19.884 20.7666C19.5309 21.4375 19.4168 21.8237 19.2538 22.8961L19.2266 23.0638H17.4121H15.5921V21.8441V20.6243H16.2821C16.9123 20.6243 16.9829 20.6141 17.097 20.5125C17.2763 20.3549 17.2654 20.0703 17.0807 19.9077L16.9394 19.7857H15.1575H13.3755L13.2343 19.9077C13.055 20.0652 13.0441 20.3397 13.2125 20.5074C13.3212 20.6192 13.3701 20.6243 14.0275 20.6243H14.7229V21.8441V23.0638H12.9083H11.0992L11.0612 22.6573C10.9905 21.9101 10.7243 21.2189 10.2408 20.5125C10.0996 20.3092 9.67036 19.74 9.29007 19.2521C8.50232 18.2407 8.25241 17.8493 7.94274 17.1683C7.10609 15.3335 7.23648 13.326 8.3176 11.3743C9.46392 9.29565 11.474 7.837 13.7395 7.43549C14.0383 7.37959 14.4458 7.36942 15.2118 7.37959C16.1082 7.39992 16.3636 7.42025 16.8579 7.53206ZM19.8134 23.9787C20.1122 24.0803 20.1611 24.4513 19.8894 24.5835C19.8242 24.6191 19.357 24.6394 18.6888 24.6394H17.5914L17.4338 24.7868C17.2654 24.9443 17.2382 25.0866 17.3415 25.2645C17.4555 25.4729 17.5533 25.4983 18.1346 25.5034H18.6888V25.8846V26.2658H15.1575H11.6262V25.8846V25.5034H12.1423C12.7073 25.5034 12.8866 25.4526 12.9789 25.2645C13.0767 25.0663 13.0496 24.9443 12.8811 24.7868L12.7236 24.6394H11.6262C10.5016 24.6394 10.3712 24.6191 10.2625 24.431C10.181 24.2836 10.2951 24.0498 10.4798 23.9838C10.6809 23.9126 19.5961 23.9126 19.8134 23.9787ZM18.6888 27.6126V28.0954H15.1575H11.6262V27.6126V27.1298H15.1575H18.6888V27.6126ZM18.5801 29.0102C18.5801 29.2491 18.102 29.7624 17.6837 29.9657L17.4121 30.103H15.1575H12.9029L12.6312 29.9708C12.4845 29.8946 12.2944 29.7777 12.2129 29.7065C12.0391 29.5541 11.7348 29.1221 11.7348 29.0255C11.7348 28.9696 12.3813 28.9594 15.1575 28.9594C17.4881 28.9594 18.5801 28.9747 18.5801 29.0102Z" fill="#808080"/>
<path d="M13.5331 6.57657C10.5831 7.05431 7.92644 9.33631 6.90508 12.2638C6.58454 13.1888 6.49219 13.7427 6.49219 14.7287C6.49219 15.9282 6.64974 16.6041 7.19845 17.7832C7.51898 18.4592 7.76346 18.8251 8.65443 19.928C9.69753 21.224 10.0452 21.8898 10.1322 22.764L10.1702 23.1502L10.0018 23.2163C9.79532 23.2926 9.52368 23.5772 9.41502 23.8211C9.2955 24.0803 9.30637 24.5174 9.43676 24.7919C9.63234 25.2035 10.0996 25.5034 10.5559 25.5034H10.7026V25.8795V26.2505L10.344 26.281C9.89854 26.3115 9.72469 26.4386 9.72469 26.7283C9.72469 27.0129 9.90941 27.1298 10.3549 27.1298H10.7026V27.6126V28.0954H10.4364C10.1159 28.0954 9.84965 28.1767 9.77902 28.2987C9.6921 28.4512 9.71383 28.685 9.82792 28.812C9.91484 28.9137 9.9909 28.934 10.344 28.9493L10.7569 28.9696L10.8167 29.178C11.0557 30.0064 11.8 30.6976 12.6856 30.9161C13.1582 31.028 17.1567 31.028 17.6294 30.9161C18.5149 30.6976 19.2592 30.0064 19.4983 29.178L19.558 28.9696L19.9709 28.9493C20.324 28.934 20.4001 28.9137 20.487 28.812C20.6011 28.685 20.6229 28.4512 20.5359 28.2987C20.4653 28.1767 20.1991 28.0954 19.8786 28.0954H19.6124V27.6126V27.1298H19.9601C20.4055 27.1298 20.5903 27.0129 20.5903 26.7283C20.5903 26.4436 20.4218 26.3217 19.9764 26.281L19.6124 26.2505V25.8795V25.5034H19.8025C20.1882 25.5034 20.65 25.2239 20.851 24.8681C21.1553 24.3192 20.9543 23.5924 20.4001 23.2773L20.1611 23.1401L20.1937 22.8351C20.2643 22.149 20.5903 21.2799 20.9814 20.7259C21.0901 20.5735 21.378 20.2279 21.6225 19.9636C22.6601 18.8353 23.3121 17.6155 23.6435 16.1823C23.7467 15.7401 23.763 15.5165 23.763 14.5763C23.763 13.3971 23.6978 12.9499 23.3827 12.0554C23.1763 11.4607 22.6058 10.3934 22.2147 9.87504C21.7746 9.29057 20.8076 8.39098 20.1937 7.98439C19.2429 7.35926 18.0206 6.86627 16.8525 6.63756C16.1408 6.50033 14.2067 6.46476 13.5331 6.57657ZM16.8579 7.53206C18.3519 7.86241 19.6124 8.53329 20.6989 9.57518C22.1114 10.9322 22.872 12.6805 22.872 14.5763C22.872 16.3805 22.1984 18.0119 20.851 19.4604C20.3403 20.0093 20.1611 20.2533 19.884 20.7666C19.5309 21.4375 19.4168 21.8237 19.2538 22.8961L19.2266 23.0638H17.4121H15.5921V21.8441V20.6243H16.2821C16.9123 20.6243 16.9829 20.6141 17.097 20.5125C17.2763 20.3549 17.2654 20.0703 17.0807 19.9077L16.9394 19.7857H15.1575H13.3755L13.2343 19.9077C13.055 20.0652 13.0441 20.3397 13.2125 20.5074C13.3212 20.6192 13.3701 20.6243 14.0275 20.6243H14.7229V21.8441V23.0638H12.9083H11.0992L11.0612 22.6573C10.9905 21.9101 10.7243 21.2189 10.2408 20.5125C10.0996 20.3092 9.67036 19.74 9.29007 19.2521C8.50232 18.2407 8.25241 17.8493 7.94274 17.1683C7.10609 15.3335 7.23648 13.326 8.3176 11.3743C9.46392 9.29565 11.474 7.837 13.7395 7.43549C14.0383 7.37959 14.4458 7.36942 15.2118 7.37959C16.1082 7.39992 16.3636 7.42025 16.8579 7.53206ZM19.8134 23.9787C20.1122 24.0803 20.1611 24.4513 19.8894 24.5835C19.8242 24.6191 19.357 24.6394 18.6888 24.6394H17.5914L17.4338 24.7868C17.2654 24.9443 17.2382 25.0866 17.3415 25.2645C17.4555 25.4729 17.5533 25.4983 18.1346 25.5034H18.6888V25.8846V26.2658H15.1575H11.6262V25.8846V25.5034H12.1423C12.7073 25.5034 12.8866 25.4526 12.9789 25.2645C13.0767 25.0663 13.0496 24.9443 12.8811 24.7868L12.7236 24.6394H11.6262C10.5016 24.6394 10.3712 24.6191 10.2625 24.431C10.181 24.2836 10.2951 24.0498 10.4798 23.9838C10.6809 23.9126 19.5961 23.9126 19.8134 23.9787ZM18.6888 27.6126V28.0954H15.1575H11.6262V27.6126V27.1298H15.1575H18.6888V27.6126ZM18.5801 29.0102C18.5801 29.2491 18.102 29.7624 17.6837 29.9657L17.4121 30.103H15.1575H12.9029L12.6312 29.9708C12.4845 29.8946 12.2944 29.7777 12.2129 29.7065C12.0391 29.5541 11.7348 29.1221 11.7348 29.0255C11.7348 28.9696 12.3813 28.9594 15.1575 28.9594C17.4881 28.9594 18.5801 28.9747 18.5801 29.0102Z" stroke="#808080" stroke-width="0.5" mask="url(#path-9-outside-1_79_858)"/>
</svg>
