<svg width="31" height="30" viewBox="0 0 31 30" fill="none" xmlns="http://www.w3.org/2000/svg">
<path d="M13.0996 0.0882702C12.2852 0.32864 11.4121 0.996983 11.0781 1.63601L10.9316 1.91156L7.38672 1.92915L3.8418 1.94673L3.49023 2.11089C3.03906 2.32194 2.62891 2.75578 2.46484 3.19548C2.38281 3.4124 2.33008 3.72898 2.30664 4.12764L2.27148 4.7315H1.84961C1.62109 4.7315 1.29883 4.77254 1.13477 4.81944C0.748047 4.93669 0.349609 5.28845 0.185547 5.66952C0.0625 5.95679 0.0625 5.99783 0.0742188 8.99951L0.0917969 12.0305L0.285156 12.4233C0.419922 12.6989 0.589844 12.9158 0.853516 13.162L1.23438 13.5079V19.992V26.4702L1.08203 26.5054C0.994141 26.5289 0.777344 26.6989 0.589844 26.8806C0.197266 27.2734 0.0625 27.6076 0.0625 28.1821C0.0625 28.7508 0.197266 29.0908 0.583984 29.4778C1.14648 30.0347 0.671875 29.9996 7.09375 29.9996H12.7012L12.8535 29.853C13.0117 29.6888 13.0703 29.4954 13.0234 29.2667C13.0117 29.1905 12.9297 29.0557 12.8535 28.9736L12.7012 28.827H7.33398C3.83594 28.827 1.89062 28.8036 1.75 28.7684C1.14062 28.5984 1.14062 27.7659 1.75 27.5959C2.04883 27.5138 28.0762 27.5138 28.375 27.5959C28.9844 27.7659 28.9844 28.5984 28.375 28.7684C28.2344 28.8036 26.2949 28.827 22.8086 28.827C18.0039 28.827 17.4473 28.8388 17.3184 28.9208C17.0195 29.1143 17.0195 29.7123 17.3184 29.9058C17.4473 29.9878 18.0215 29.9996 23.0488 29.9996C29.4473 29.9996 28.9785 30.0347 29.541 29.4778C29.9277 29.0908 30.0625 28.7508 30.0625 28.1821C30.0625 27.6076 29.9277 27.2734 29.5352 26.8806C29.3477 26.6989 29.1309 26.5289 29.043 26.5054L28.8906 26.4702V19.992V13.5079L29.2715 13.162C29.5352 12.9158 29.7051 12.6989 29.8398 12.4233L30.0332 12.0305L30.0508 8.99951C30.0625 5.99783 30.0625 5.95679 29.9395 5.66952C29.7754 5.28845 29.377 4.93669 28.9902 4.81944C28.8262 4.77254 28.5039 4.7315 28.2754 4.7315H27.8535L27.8184 4.12764C27.7949 3.72898 27.7422 3.4124 27.6602 3.19548C27.4961 2.75578 27.0859 2.32194 26.6348 2.11089L26.2832 1.94673L22.1875 1.91742L18.0918 1.88811L18.0098 1.64774C17.8105 1.04388 17.1133 0.56901 16.4219 0.56901C16.1406 0.56901 16.0059 0.539696 15.8359 0.434168C15.3496 0.123447 14.9629 0.0237808 14.1836 0.00619316C13.6094 -0.0113945 13.375 0.00619316 13.0996 0.0882702ZM14.9688 1.37806C15.1152 1.44841 15.332 1.57152 15.4551 1.66533C15.6484 1.81775 15.707 1.82948 16.0996 1.81189C16.6035 1.7943 16.7383 1.85293 16.8555 2.12848C16.9316 2.31022 16.9316 2.35712 16.832 2.58576C16.7676 2.7206 16.627 2.90235 16.5215 2.97856C16.3457 3.10168 16.2695 3.11926 15.8477 3.10168C15.4082 3.08995 15.3613 3.10168 15.2266 3.23652C15.1035 3.35963 15.0742 3.45344 15.0508 3.77588C15.0273 4.12178 15.0098 4.17454 14.8281 4.33284C14.6406 4.50285 14.623 4.50872 14.2422 4.47354C13.6211 4.40905 13.3633 4.60838 13.3633 5.14188C13.3633 5.45847 13.2344 5.69297 12.9707 5.87472C12.5195 6.17957 11.9863 5.98024 11.998 5.51709C11.998 5.38811 12.0332 5.17706 12.0801 5.03635C12.1504 4.81357 12.1445 4.75495 12.0508 4.50872C11.9922 4.35629 11.9043 4.06315 11.8574 3.8521C11.5938 2.66198 12.5078 1.38392 13.7441 1.22563C14.1836 1.17286 14.6172 1.22563 14.9688 1.37806ZM10.5625 3.34205C10.5391 3.53551 10.6738 4.42664 10.7559 4.62597C10.7969 4.72563 10.6035 4.7315 7.15234 4.7315H3.50195L3.53125 4.2449C3.56055 3.67622 3.67773 3.42412 3.98828 3.25997C4.18164 3.15444 4.38086 3.14858 7.38672 3.14858H10.5859L10.5625 3.34205ZM26.1367 3.25997C26.4473 3.42412 26.5645 3.67622 26.5938 4.2449L26.623 4.7315H22.3457H18.0742L17.8926 4.16868L17.7051 3.6L17.834 3.37722L17.9629 3.14858H21.9473C25.7266 3.14858 25.9434 3.15444 26.1367 3.25997ZM17.793 7.92078C17.8281 8.0908 17.8281 8.09666 17.6934 8.00872C17.6172 7.95596 16.8379 7.5104 15.959 7.0238L14.3652 6.12681L14.459 5.93334C14.5352 5.76919 14.5879 5.73401 14.8047 5.7047C15.3438 5.63435 15.8418 5.24155 16.1055 4.67873C16.2344 4.40905 16.2988 4.34456 16.4395 4.32111L16.6152 4.28593L17.1836 6.02128C17.5 6.97103 17.7695 7.82698 17.793 7.92078ZM10.8906 6.21475C11.2598 7.04725 12.2383 7.45763 13.1348 7.15278L13.4629 7.04139L14.8926 7.85043C15.6777 8.30186 16.3633 8.68879 16.4102 8.71811C16.4629 8.75328 13.5977 8.77673 8.86328 8.77673H1.22852L1.24609 7.48108C1.26367 6.20303 1.26367 6.18544 1.4043 6.07405C1.5332 5.96852 1.70312 5.96265 6.16211 5.96265H10.7793L10.8906 6.21475ZM28.7207 6.07405C28.8613 6.18544 28.8613 6.20303 28.8789 7.48108L28.8965 8.77673L24.1387 8.76501L19.375 8.74742L18.9238 7.35211L18.4785 5.96265H23.5293C28.416 5.96265 28.5918 5.96852 28.7207 6.07405ZM3.625 10.8814C3.60742 11.7491 3.60742 11.7608 3.43164 12.0129C3.19141 12.353 2.86914 12.5288 2.48242 12.5288C2.10156 12.5288 1.90234 12.4526 1.65039 12.2181C1.33984 11.9191 1.27539 11.7139 1.24609 10.8111L1.2168 10.0079H2.43555H3.64844L3.625 10.8814ZM7.19922 10.899C7.18164 11.7257 7.16992 11.8136 7.04688 11.9895C6.7832 12.353 6.53125 12.4937 6.10352 12.5171C5.63477 12.5347 5.34766 12.3999 5.07227 12.0129C4.89648 11.7608 4.89648 11.7491 4.87891 10.8814L4.85547 10.0079H6.03906H7.2168L7.19922 10.899ZM10.832 10.8697C10.8145 11.667 10.8027 11.755 10.6738 11.966C10.4629 12.3061 10.0703 12.5288 9.69531 12.5288C9.30859 12.5288 9.10938 12.4526 8.85742 12.2181C8.54688 11.9191 8.48242 11.7139 8.45312 10.8111L8.42383 10.0079H9.64258H10.8555L10.832 10.8697ZM14.4062 10.899C14.3887 11.7257 14.377 11.8136 14.2539 11.9895C13.9902 12.353 13.7383 12.4937 13.3105 12.5171C12.8418 12.5347 12.5547 12.3999 12.2793 12.0129C12.1035 11.7608 12.1035 11.7491 12.0859 10.8814L12.0625 10.0079H13.2461H14.4238L14.4062 10.899ZM18.0391 10.8697C18.0215 11.667 18.0098 11.755 17.8809 11.966C17.6699 12.3061 17.2773 12.5288 16.9023 12.5288C16.5156 12.5288 16.3164 12.4526 16.0645 12.2181C15.7539 11.9191 15.6895 11.7139 15.6602 10.8111L15.6309 10.0079H16.8496H18.0625L18.0391 10.8697ZM21.6133 10.899C21.5957 11.7257 21.584 11.8136 21.4609 11.9895C21.1973 12.353 20.9453 12.4937 20.5176 12.5171C20.0488 12.5347 19.7617 12.3999 19.4863 12.0129C19.3105 11.7608 19.3105 11.7491 19.293 10.8814L19.2695 10.0079H20.4531H21.6309L21.6133 10.899ZM25.2461 10.8697C25.2285 11.667 25.2168 11.755 25.0879 11.966C24.877 12.3061 24.4844 12.5288 24.1094 12.5288C23.7227 12.5288 23.5234 12.4526 23.2715 12.2181C22.9609 11.9191 22.8965 11.7139 22.8672 10.8111L22.8379 10.0079H24.0566H25.2695L25.2461 10.8697ZM28.8203 10.899C28.8027 11.7257 28.791 11.8136 28.668 11.9895C28.4043 12.353 28.1523 12.4937 27.7246 12.5171C27.2559 12.5347 26.9688 12.3999 26.6934 12.0129C26.5176 11.7608 26.5176 11.7491 26.5 10.8814L26.4766 10.0079H27.6602H28.8379L28.8203 10.899ZM5.04297 13.5724C5.33594 13.719 5.42383 13.7307 6.03906 13.7307C6.64258 13.7307 6.74805 13.7131 7.04102 13.5783C7.22266 13.4903 7.48047 13.3262 7.61523 13.203L7.85547 12.9861L8.0957 13.203C8.23047 13.3262 8.48828 13.4903 8.66992 13.5783C8.96289 13.7131 9.06836 13.7307 9.67188 13.7307C10.2871 13.7307 10.375 13.719 10.6738 13.5724C10.8496 13.4844 11.1016 13.3203 11.2305 13.2089L11.459 13.0154L11.6934 13.2148C11.8164 13.3203 12.0684 13.4844 12.25 13.5724C12.543 13.719 12.6309 13.7307 13.2461 13.7307C13.8496 13.7307 13.9551 13.7131 14.248 13.5783C14.4297 13.4903 14.6875 13.3262 14.8223 13.203L15.0625 12.9861L15.3027 13.203C15.4375 13.3262 15.6953 13.4903 15.877 13.5783C16.1699 13.7131 16.2754 13.7307 16.8789 13.7307C17.4941 13.7307 17.582 13.719 17.8809 13.5724C18.0566 13.4844 18.3086 13.3203 18.4375 13.2089L18.666 13.0154L18.9004 13.2148C19.0234 13.3203 19.2754 13.4844 19.457 13.5724C19.75 13.719 19.8379 13.7307 20.4531 13.7307C21.0566 13.7307 21.1621 13.7131 21.4551 13.5783C21.6367 13.4903 21.8945 13.3262 22.0293 13.203L22.2695 12.9861L22.4629 13.1679C22.5625 13.2734 22.8203 13.4434 23.0312 13.5431C23.3887 13.719 23.4473 13.7307 24.0859 13.7307C24.7012 13.7307 24.7891 13.719 25.0879 13.5724C25.2637 13.4844 25.5156 13.3203 25.6445 13.2089L25.873 13.0154L26.1074 13.2148C26.4355 13.4962 26.9219 13.7072 27.3203 13.7424L27.6602 13.7776V14.528V15.2843L21.9062 15.2901C17.6523 15.2901 16.0996 15.3136 15.959 15.3605C15.6074 15.4895 15.2734 15.7826 15.0918 16.1109L14.916 16.4275L14.8984 19.9334L14.8809 23.4451L15.0215 23.7441C15.2148 24.1662 15.4258 24.3949 15.7773 24.5707L16.082 24.7232H21.8711H27.6602V25.5146V26.3061H20.3066H12.9531V21.0297C12.9531 15.3546 12.959 15.5012 12.666 15.3429C12.5898 15.3077 11.2246 15.2843 8.68164 15.2843H4.81445L4.65039 15.425L4.48633 15.5657L4.46875 20.9359L4.45703 26.3061H3.46094H2.46484V20.0389V13.7776L2.80469 13.7424C3.20312 13.7072 3.69531 13.4962 4.02344 13.2089L4.25195 13.0154L4.48633 13.2148C4.60938 13.3203 4.86133 13.4844 5.04297 13.5724ZM11.7227 21.4108V26.3061H8.70508H5.6875V21.4108V16.5154H8.70508H11.7227V21.4108ZM27.6602 20.033V23.5506H22.1289C18.2441 23.5506 16.5508 23.533 16.416 23.4861C16.3164 23.451 16.2051 23.3748 16.1758 23.3161C16.1406 23.2458 16.1172 21.9736 16.1172 19.992C16.1172 16.832 16.1172 16.7675 16.2344 16.6444L16.3574 16.5154H22.0059H27.6602V20.033Z" fill="#808080"/>
</svg>
