<svg width="39" height="30" viewBox="0 0 39 30" fill="none" xmlns="http://www.w3.org/2000/svg">
<path d="M1.84374 0.18376C1.19301 0.427784 0.605544 0.979101 0.280177 1.63887L0 2.19019V14.997V27.8038L0.280177 28.3551C0.614581 29.0329 1.20205 29.5662 1.86182 29.8192C2.34987 30 2.48544 30 19.2509 30C36.0163 30 36.1519 30 36.6399 29.8192C37.2635 29.5843 37.851 29.0691 38.1854 28.4545L38.4565 27.9665V14.997V2.0275L38.1854 1.53945C37.851 0.924873 37.2635 0.409708 36.6399 0.174723C36.1519 -0.00603676 36.0253 -0.00603676 19.2237 0.00300026C2.5939 0.00300026 2.29564 0.00300026 1.84374 0.18376ZM12.9243 6.63687V11.7433H11.6951H10.466L10.5925 11.5354C11.659 9.87246 12.0566 8.96866 12.1651 7.92026C12.3459 6.1217 11.2884 4.10624 9.71581 3.27474C8.4505 2.61497 6.95923 2.47036 5.73007 2.90419C3.59711 3.65434 2.34083 5.53423 2.46736 7.8118C2.52159 8.83309 2.75658 9.49286 3.56096 10.7763L4.15746 11.7433H2.84696H1.53645V7.22433C1.53645 2.45229 1.54549 2.32576 1.9522 1.96424C2.44929 1.52138 2.32276 1.53042 7.79976 1.53042H12.9243V6.63687ZM23.1372 4.10624V6.68205H18.799H14.4607V4.10624V1.53042H18.799H23.1372V4.10624ZM25.7582 5.02811C25.7672 8.63425 25.8124 9.40248 26.0745 10.234C26.1559 10.5142 26.9783 11.9512 27.9635 13.5599C29.8434 16.6329 29.988 16.8046 30.6839 16.8046C31.3617 16.8046 31.5335 16.6057 33.1874 13.9124C34.0279 12.5477 34.8413 11.1739 35.004 10.8576L35.2842 10.2972H36.1247H36.9653V13.822V17.3378L33.9285 17.3649L30.8918 17.392L30.72 17.609C30.5574 17.8078 30.5483 18.0066 30.5483 21.2422V24.6676H22.378H14.1986L14.1715 22.4443L14.1444 20.2209L13.8913 20.004L13.6383 19.7871H10.7913H7.95341V18.2597C7.95341 17.4192 7.92629 16.66 7.89918 16.5786C7.75457 16.2081 7.46536 16.1719 4.4286 16.1719H1.53645V14.771V13.3701H3.33501H5.13356L5.77526 14.4005C6.46214 15.5031 6.72424 15.72 7.34786 15.72C7.85399 15.72 8.21551 15.3947 8.8572 14.3462L9.44467 13.3882L11.7313 13.3521L14.0269 13.325L14.2438 13.0719C14.4607 12.8188 14.4607 12.8188 14.4607 10.5593V8.30889H19.2509C24.3121 8.30889 24.4658 8.29985 24.6194 7.90218C24.6465 7.82084 24.6736 6.34765 24.6736 4.63947V1.53042H25.2159H25.7582V5.02811ZM36.3688 1.83771C36.9562 2.28057 36.9653 2.35287 36.9653 5.73307V8.76079H36.2422H35.5192V8.25466C35.5192 7.61296 35.1577 6.53745 34.7419 5.89575C34.0912 4.92869 32.9434 4.13335 31.8046 3.88029C31.0816 3.7176 29.6445 3.79894 28.9847 4.04297C28.7046 4.14239 28.2256 4.39545 27.9273 4.59429L27.385 4.94677V3.23859V1.52138L31.7052 1.54849L36.0344 1.57561L36.3688 1.83771ZM8.72163 4.55813C9.39948 4.8835 9.98695 5.47097 10.2852 6.1217C10.5925 6.79051 10.6648 7.82988 10.4479 8.49869C10.3214 8.86924 7.57381 13.5148 7.33883 13.7497C7.26652 13.813 4.52802 9.37537 4.22977 8.69752C3.94959 8.09198 3.95863 7.01646 4.2388 6.3115C4.57321 5.44385 5.24202 4.80216 6.21812 4.41353C6.87789 4.14239 8.02571 4.21469 8.72163 4.55813ZM32.0125 5.61558C33.5218 6.3115 34.3443 8.08294 33.8291 9.5742C33.6303 10.1617 30.7291 14.9428 30.6297 14.8433C30.5935 14.8072 29.9066 13.6955 29.1113 12.376C27.5025 9.74592 27.3398 9.35729 27.4031 8.39927C27.5025 7.03454 28.4244 5.88671 29.762 5.45289C30.3495 5.2631 31.3979 5.3354 32.0125 5.61558ZM6.41695 23.1402V28.4726L4.44668 28.4455L2.46736 28.4184L2.13296 28.1563C1.52742 27.6953 1.53645 27.8128 1.53645 22.5437V17.7987H3.9767H6.41695V23.1402ZM36.9653 23.086C36.9653 27.7586 36.9743 27.6953 36.3688 28.1563L36.0344 28.4184L34.055 28.4455L32.0848 28.4726V23.6825V18.8833H34.525H36.9653V23.086ZM12.5628 23.4475C12.5628 25.6708 12.617 26.0143 12.9695 26.1498C13.0508 26.1769 14.9036 26.2041 17.0908 26.2041H21.0585V27.3338V28.4635H14.5059H7.95341V24.8936V21.3236H10.2581H12.5628V23.4475ZM30.5483 27.3338V28.4635H26.5716H22.5949V27.3338V26.2041H26.5716H30.5483V27.3338Z" fill="#808080"/>
</svg>
